<svg xmlns="http://www.w3.org/2000/svg" xmlns:xlink="http://www.w3.org/1999/xlink" width="59.47mm" height="59.47mm" viewBox="0 0 168.56 168.56">
  <defs>
    <style>
      .cls-1, .cls-2, .cls-9 {
        fill: #fff;
      }

      .cls-1, .cls-4, .cls-5, .cls-6, .cls-7, .cls-8, .cls-9 {
        stroke: #e94e1b;
        stroke-linecap: round;
        stroke-linejoin: round;
      }

      .cls-3 {
        clip-path: url(#clip-path);
      }

      .cls-4, .cls-5, .cls-6, .cls-7, .cls-8 {
        fill: none;
      }

      .cls-5 {
        stroke-width: 1.16px;
      }

      .cls-6 {
        stroke-width: 1.17px;
      }

      .cls-7 {
        stroke-width: 0.78px;
      }

      .cls-8, .cls-9 {
        stroke-width: 0.5px;
      }
    </style>
    <clipPath id="clip-path">
      <circle class="cls-1" cx="84.28" cy="84.28" r="83.78"/>
    </clipPath>
  </defs>
  <g id="beach">
    <g>
      <circle class="cls-2" cx="84.28" cy="84.28" r="83.78"/>
      <g class="cls-3">
        <path class="cls-1" d="M15.87,146.32c2.25.11,3.2-4.62,6.51-4.5s6.87,3.19,10.3,3.43,2.72-3.08,5.32-3,2.54,1.9,5.42,1.78,3-2.61,5.12-2.37,2.14,2.35,4.68,2.24"/>
      </g>
      <circle class="cls-4" cx="84.28" cy="84.28" r="83.78"/>
    </g>
    <path class="cls-5" d="M34.49,151.67c18.28-4,49.46-28.27,66.6-32.37"/>
    <path class="cls-5" d="M19.39,137.28c3.3.14,6-4.89,10.28-4.75s5.65,2.3,8.94,2.3,4-3.37,7.2-3.23,5.56,3.36,7.75,3.64S58,132.08,61,132.36s2.06,3.09,6.47,3.27"/>
    <path class="cls-6" d="M14.08,129.49c5.63,0,8-5.3,14.18-5.3s3.94,2.81,9.58,3,5.91-3.42,12.1-3.58c6-.16,7.26,3.6,12.32,3.76,4.4.15,5.8-3.36,9.79-3.68,4.16-.33,6.8,4.08,8.88,4.24"/>
    <path class="cls-4" d="M85.09,86.36l19.3,40s2,.78,3-.53L87.83,84.92Z"/>
    <path class="cls-4" d="M71.78,51.59s-7.5,11.9-.84,47.2c0,0,14.14-21.57,40.41-16.16C111.35,82.63,88,55.42,71.78,51.59Z"/>
    <path class="cls-4" d="M70.94,98.79a42.37,42.37,0,0,0-29.58.47s9.89-37.31,31-48c0,0,25.78-6.19,56.19,17.37,0,0-19.4,4.84-17.19,14"/>
    <path class="cls-4" d="M72.35,51.28c20-5.34,42.67,6,42.67,6-1,.55,13.52,11.38,13.52,11.38"/>
    <path class="cls-7" d="M70,52.55c.22-.24.08-.59.2-1.47a3.41,3.41,0,0,0-.06-1.16l1.15-.58a3.2,3.2,0,0,0,.88.68c1.14.62,1.31.81,1.33,1s-.2-.26-1.22.28C69.1,52.92,70.38,52.25,70,52.55Z"/>
    <path class="cls-4" d="M95.83,127.45s3-2.57,4.91-2.57.93,1.05,4.32,1.75"/>
    <path class="cls-8" d="M70.21,96.42A39,39,0,0,0,52.72,95"/>
    <path class="cls-8" d="M69.94,94.92a27.86,27.86,0,0,0-8.48-1.54"/>
    <path class="cls-8" d="M70.88,52.55S59.59,61.17,55.39,74.17"/>
    <path class="cls-8" d="M63.14,73.69c1.53-15.14,8.64-22.1,8.64-22.1s-1.47,9.17-1.41,11.77"/>
    <path class="cls-8" d="M70.88,52.55s-5.87,5.82-8,10.81"/>
    <path class="cls-8" d="M70.58,94.41A39,39,0,0,1,84.68,84"/>
    <path class="cls-8" d="M70,93a28.28,28.28,0,0,1,6.39-5.78"/>
    <path class="cls-8" d="M113.66,56.64a5.67,5.67,0,0,0,.84,1.91"/>
    <path class="cls-8" d="M112.55,56.16a2.89,2.89,0,0,0,.51,1.44"/>
    <path class="cls-8" d="M78.43,128.91c-2.61-.18-3.61-3.35-6.05-3.35-2.1,0-5.46,3.95-10.32,3.93s-8.57-4-12-3.93-7.55,3.95-12,3.93-4.71-3-10-3c-4.81,0-12.49,6.12-12.49,6.12"/>
    <path class="cls-9" d="M90.73,91.05a2.43,2.43,0,0,1-1.93.28"/>
    <path class="cls-8" d="M16.87,134c3.81.12,6.28-4.86,10.21-4.93s5.87,2.12,10.4,2.19,8.94-3.8,12.21-3.67,8.06,3.93,12,4,8.66-3.7,10.53-3.7,2.24,2.51,4.79,2.56"/>
    <path class="cls-8" d="M18.3,135.92c2.79,0,6.44-5.17,9.66-5.09s6.66,2.25,10.1,1.83,8.92-3.45,11.75-3.43c2.64,0,5.74,4.07,8.11,4"/>
    <path class="cls-8" d="M21.32,139.56S26,136,28.83,135.92s8,1.76,10.56,1.82,4.53-2.89,6.18-2.89,5.24,3.23,7.76,3.23,5.53-2.94,7-2.8,1.38,2.54,3.82,2.57"/>
    <path class="cls-8" d="M22.79,141.18s3.31-2.74,6.76-2.74,6.06,1.66,8.56,1.66,5-2.52,7.1-2.37,4.74,2.87,7.4,2.87,4.89-1.94,6.68-1.87.27.72,1.89.83"/>
    <path class="cls-8" d="M26.22,142.91a8.08,8.08,0,0,1,4.69-1.73c2.66,0,4.3,1.24,6.75,1.12s5-1.7,6.83-1.63,4.24,1.39,6.47,1.63,5.08-.69,7-.91"/>
    <path class="cls-8" d="M27.64,146s3.21,1.83,6.07,1.53,2.87-2.17,4.4-2.17,2.85.69,5.31.69,3.54-2,4.92-2,1.53,1.59,2.4,1.14"/>
    <path class="cls-8" d="M31.56,149.4s.75.47,2.93,0,1.69-1.89,3.62-1.82,3.42,1.17,5.49,1,3.1-2.83,4.45-2.76"/>
    <path class="cls-8" d="M47,131.79a6.11,6.11,0,0,1,3-.19c1.32.34,5,2.79,6,2.84"/>
    <path class="cls-8" d="M63.44,133.76c2.22,0,5.39-2.95,7.49-2.93s1.11,1.76,2.37,1.75"/>
    <path class="cls-8" d="M73.52,51.74s14.12-1.5,26.1,5"/>
    <path class="cls-8" d="M95,58.86C82.23,50.54,72.35,51.7,72.35,51.7"/>
    <path class="cls-9" d="M90.18,89.9a2.43,2.43,0,0,1-1.93.29"/>
    <path class="cls-9" d="M89.77,89a2.47,2.47,0,0,1-1.93.28"/>
    <path class="cls-5" d="M104.29,118.65c3.36-.25,9.35-3,56.12,0"/>
  </g>
</svg>
