<svg height="512" viewBox="0 0 128 128" width="512" xmlns="http://www.w3.org/2000/svg"><g><path d="m127.428 57.1-62.25-56.644a1.75 1.75 0 0 0 -2.356 0l-62.25 56.644a1.751 1.751 0 0 0 -.172 2.4l6.214 7.565a1.751 1.751 0 0 0 2.531.184l6.108-5.558v11.5a7.624 7.624 0 0 0 0 14.951v13.285a7.624 7.624 0 0 0 0 14.95v9.873a1.751 1.751 0 0 0 1.747 1.75h94a1.751 1.751 0 0 0 1.75-1.75v-9.873a7.624 7.624 0 0 0 0-14.95v-13.285a7.624 7.624 0 0 0 0-14.951v-11.5l6.108 5.558a1.753 1.753 0 0 0 1.178.456h.127a1.752 1.752 0 0 0 1.226-.635l6.211-7.57a1.75 1.75 0 0 0 -.172-2.4zm-99.928 67.4h-8.75v-7.973h8.75zm0-11.473h-10.75a4.125 4.125 0 0 1 0-8.25h10.75zm0-11.75h-8.75v-12.985h8.75zm0-16.485h-10.75a4.125 4.125 0 0 1 0-8.25h10.75zm29.75 1.75v37.958h-26.25v-47.958h26.25zm-28-13.5h-10.5v-12.986h90.5v12.986zm68.79-24.736 9.068 8.25h-86.214l9.068-8.25zm-64.23-3.5 30.19-27.471 30.192 27.471zm66.69 43.486h8.748v12.985h-8.748zm-14.873 4.742v-16.492h11.373v16.492zm11.373 3.5v16.493h-11.373v-16.493zm-26.25-3.5v-16.492h11.377v16.492zm11.375 3.5v16.493h-11.373v-16.493zm-21.379 4.743v-12.985h6.5v12.985zm6.5 3.5v8.25h-6.5v-8.25zm-6.5-19.985v-8.25h6.5v8.25zm48.5 39.708h-48.5v-7.973h48.5zm6.125-15.6a4.13 4.13 0 0 1 -4.125 4.125h-10.746v-8.25h10.75a4.13 4.13 0 0 1 4.125 4.125zm0-28.235a4.13 4.13 0 0 1 -4.125 4.125h-10.746v-8.25h10.75a4.13 4.13 0 0 1 4.125 4.127zm4.477-17.246-7.673-6.981-12.281-11.177-34.716-31.587a1.752 1.752 0 0 0 -2.356 0l-34.714 31.586-12.286 11.179-7.674 6.982-3.99-4.857 59.842-54.448 59.842 54.448z"/><path d="m51 105.909a1.75 1.75 0 0 0 1.75-1.75v-7.687a1.75 1.75 0 0 0 -3.5 0v7.687a1.749 1.749 0 0 0 1.75 1.75z"/></g></svg>
