<svg id="Capa_1" enable-background="new 0 0 512 512" height="512" viewBox="0 0 512 512" width="512" xmlns="http://www.w3.org/2000/svg"><g><path d="m330.306 270.463h68.668c12.908 0 22.045-12.697 17.917-24.972-.944-2.808-1.729-5.709-2.332-8.622l-5.945-28.723c-1.81-8.74-9.601-15.083-18.526-15.083h-59.781c-10.431 0-18.918 8.486-18.918 18.918v39.563c-.001 10.432 8.486 18.919 18.917 18.919zm-3.918-58.482c0-2.161 1.758-3.918 3.918-3.918h59.781c1.849 0 3.462 1.314 3.837 3.124l5.945 28.723c.724 3.5 1.667 6.987 2.803 10.364.863 2.565-1.013 5.19-3.699 5.19h-68.668c-2.16 0-3.918-1.758-3.918-3.918v-39.565z"/><path d="m378.247 384.112c-17.243 0-31.271 14.027-31.271 31.27s14.028 31.271 31.271 31.271c17.242 0 31.27-14.028 31.27-31.271s-14.028-31.27-31.27-31.27zm0 47.54c-8.972 0-16.271-7.299-16.271-16.271 0-8.971 7.299-16.27 16.271-16.27 8.971 0 16.27 7.298 16.27 16.27s-7.299 16.271-16.27 16.271z"/><path d="m143.089 384.112c-17.242 0-31.27 14.027-31.27 31.27s14.028 31.271 31.27 31.271 31.27-14.028 31.27-31.271-14.027-31.27-31.27-31.27zm0 47.54c-8.971 0-16.27-7.299-16.27-16.271 0-8.971 7.299-16.27 16.27-16.27s16.27 7.298 16.27 16.27-7.298 16.271-16.27 16.271z"/><path d="m390.436 127.64c14.354 0 24.241-14.501 18.922-27.882l-6.762-17.013c-2.637-6.639-8.961-10.928-16.113-10.928h-69.403c-11.228 0-20.362 9.134-20.362 20.361v15.1c0 11.228 9.134 20.362 20.362 20.362zm-78.718-20.362v-15.1c0-2.956 2.405-5.361 5.362-5.361h69.403c.981 0 1.813.562 2.173 1.467l6.762 17.015c1.4 3.521-1.195 7.342-4.982 7.342h-73.356c-2.957-.001-5.362-2.406-5.362-5.363z"/><path d="m33.817 423.578h44.795c4.045 31.99 31.407 56.816 64.477 56.816s60.432-24.826 64.477-56.816h106.203c4.045 31.99 31.407 56.816 64.477 56.816s60.432-24.826 64.477-56.816h38.2c17.135 0 31.076-13.94 31.076-31.076 0-22.045 0-75.071 0-92.873 0-21.004-13.862-39.908-34.646-45.77-11.93-3.365-20.905-13-23.422-25.143l-12.863-62.142c18.339-5.286 28.088-25.22 21.053-42.931l-22.156-55.74c-8.756-22.049-29.75-36.297-53.483-36.297h-104.742c-4.142 0-7.5 3.358-7.5 7.5s3.358 7.5 7.5 7.5h104.743c17.548 0 33.069 10.533 39.543 26.835l22.156 55.74c4.508 11.352-3.811 23.669-16.061 23.669h-153.442-54.122v-19.303c0-22.783-18.536-41.319-41.319-41.319h-80.298c-22.783 0-41.319 18.536-41.319 41.319v19.303h-46.621v-40.843c0-36.063 29.339-65.401 65.401-65.401h171.339c4.142 0 7.5-3.358 7.5-7.5s-3.358-7.5-7.5-7.5h-171.339c-44.333 0-80.401 36.068-80.401 80.402v277.753c0 18.646 15.17 33.817 33.817 33.817zm109.272 41.816c-27.365 0-49.656-22.096-49.996-49.381 0-.01.001-.019.001-.029-.002-.16-.007-.319-.013-.479l-.004-.123c0-27.577 22.436-50.012 50.012-50.012 27.388 0 50.005 22.29 50.012 50l-.004.125c-.006.168-.011.336-.013.505 0 .007.001.015.001.022-.345 27.281-22.634 49.372-49.996 49.372zm235.158 0c-24.96 0-48.793-18.739-50.012-50.012 0-27.577 22.436-50.012 50.012-50.012 27.574 0 50.005 22.43 50.012 50l-.004.126c-.008.209-.012.317-.012.524-.345 27.282-22.634 49.374-49.996 49.374zm118.753-110.738h-16.777c-5.143 0-9.328-4.185-9.328-9.328v-18.818c0-5.144 4.185-9.328 9.328-9.328h16.777zm-57.757-122.897c3.659 17.646 16.701 31.647 34.039 36.537 13.865 3.911 23.718 16.58 23.718 31.333v2.552h-16.777c-13.415 0-24.328 10.914-24.328 24.328v18.818c0 13.415 10.913 24.328 24.328 24.328h16.777v22.846c0 8.864-7.212 16.076-16.076 16.076h-38.019c-3.388-32.414-30.849-58.126-64.509-58.205-.05 0-.1-.003-.15-.003s-.1.003-.15.003c-33.482.079-61.106 25.648-64.509 58.205h-27.409c0-12.539 0-231.788 0-240.728h139.836zm-336.303-124.531h80.297c14.512 0 26.319 11.807 26.319 26.319v87.318h-132.934c0-9.762 0-78.526 0-87.318 0-14.512 11.806-26.319 26.318-26.319zm-40.761 135.579c0-3.828 3.114-6.942 6.942-6.942h147.935c3.828 0 6.942 3.115 6.942 6.942v11.613c0 3.828-3.114 6.942-6.942 6.942h-147.934c-3.828 0-6.942-3.114-6.942-6.942v-11.613zm-.557-74.957v54.336c-8.417 3.071-14.442 11.155-14.442 20.621v11.613c0 12.099 9.843 21.942 21.942 21.942h147.935c12.099 0 21.942-9.843 21.942-21.942v-11.613c0-9.466-6.026-17.55-14.442-20.621v-54.336h46.622v133.527h-153.871c-7.749 0-10.384 10.405-3.575 14.095 3.162 1.718-4.837.577 157.446.905v92.201h-63.431c-3.393-32.461-30.908-58.126-64.509-58.205-.05 0-.1-.003-.15-.003s-.1.003-.15.003c-32.965.078-61.047 25.079-64.509 58.205h-44.613c-10.376 0-18.817-8.442-18.817-18.818v-73.383c52.736-.01 72.478.021 73.074-.039 3.785-.385 6.733-3.581 6.733-7.461 0-4.142-3.358-7.5-7.5-7.5h-72.307v-133.527z"/></g></svg>
