<svg xmlns="http://www.w3.org/2000/svg" width="520.434" height="533.524" viewBox="0 0 520.434 533.524">
  <path id="Icon_awesome-facebook-square" data-name="Icon awesome-facebook-square" d="M464.673,2.25H55.761C24.965,2.25,0,27.843,0,59.413v419.2c0,31.57,24.965,57.163,55.761,57.163H215.2V354.388H142.016V269.012H215.2V203.941c0-74.015,42.982-114.9,108.815-114.9,31.528,0,64.5,5.764,64.5,5.764v72.645H352.187c-35.791,0-46.955,22.77-46.955,46.124v55.437h79.9l-12.779,85.376H305.232V535.774H464.673c30.8,0,55.761-25.593,55.761-57.163V59.413c0-31.57-24.965-57.163-55.761-57.163Z" transform="translate(0 -2.25)" fill="#fff"/>
</svg>
