<svg xmlns="http://www.w3.org/2000/svg" xmlns:xlink="http://www.w3.org/1999/xlink" width="59.52mm" height="59.52mm" viewBox="0 0 168.72 168.72">
  <defs>
    <style>
      .cls-1, .cls-2, .cls-6 {
        fill: #fff;
      }

      .cls-1, .cls-4, .cls-5, .cls-6, .cls-7 {
        stroke: #e94e1b;
        stroke-linecap: round;
        stroke-linejoin: round;
      }

      .cls-1, .cls-4 {
        stroke-width: 1.16px;
      }

      .cls-3 {
        clip-path: url(#clip-path);
      }

      .cls-4, .cls-5, .cls-7 {
        fill: none;
      }

      .cls-5, .cls-6 {
        stroke-width: 1.2px;
      }

      .cls-7 {
        stroke-width: 0.46px;
      }
    </style>
    <clipPath id="clip-path">
      <circle class="cls-1" cx="84.36" cy="84.36" r="83.78"/>
    </clipPath>
  </defs>
  <g id="forest">
    <g>
      <circle class="cls-2" cx="84.36" cy="84.36" r="83.78"/>
      <g class="cls-3">
        <path class="cls-1" d="M16.33,133.26c6.36,0,23-2.28,28.91-2.28s20.46,1.11,28.75.86,21.32,0,21.32,0c4.46-.05,18.49-1.68,30.7-.86s23.66,1.32,27.39.86"/>
      </g>
      <circle class="cls-4" cx="84.36" cy="84.36" r="83.78"/>
    </g>
    <path class="cls-5" d="M80.11,110.82s.78,21-6.12,21"/>
    <path class="cls-5" d="M88.61,110.82s-.78,21,6.12,21"/>
    <path class="cls-5" d="M60.3,84.72,41.79,108.54a1.4,1.4,0,0,0,1.09,2.28h83a1.4,1.4,0,0,0,1.09-2.28L109.56,84.72C109,84,60.86,84,60.3,84.72Z"/>
    <path class="cls-6" d="M68.43,63.47,52.37,82.41a1.4,1.4,0,0,0,1.06,2.31h61.86a1.4,1.4,0,0,0,1.06-2.31L100.43,63.35C99.87,62.69,69,62.81,68.43,63.47Z"/>
    <path class="cls-6" d="M84.36,34l-23,27.09a1.4,1.4,0,0,0,1.07,2.31h43.8a1.4,1.4,0,0,0,1.07-2.31Z"/>
    <line class="cls-7" x1="87.42" y1="53.22" x2="100.43" y2="53.22"/>
    <line class="cls-7" x1="72.76" y1="53.34" x2="63.8" y2="63.47"/>
    <line class="cls-7" x1="74.93" y1="52.92" x2="65.84" y2="63.35"/>
    <line class="cls-7" x1="114.11" y1="84.72" x2="105.01" y2="73.41"/>
    <line class="cls-7" x1="111.22" y1="84.72" x2="102.61" y2="72.5"/>
    <line class="cls-7" x1="66.75" y1="65.59" x2="82.5" y2="65.59"/>
    <line class="cls-7" x1="88.59" y1="88.58" x2="110.48" y2="88.58"/>
    <line class="cls-7" x1="48.66" y1="110.31" x2="58.58" y2="97.98"/>
    <line class="cls-7" x1="45.24" y1="110.55" x2="58.58" y2="95.54"/>
    <path class="cls-7" d="M86.7,110.82s-.19,8.69,0,10.15.49,4.1,1.17,5.08"/>
    <path class="cls-7" d="M84.44,110.82s-.12,12.63.46,13.09"/>
    <line class="cls-7" x1="116.01" y1="84.72" x2="110.48" y2="78.41"/>
    <line class="cls-7" x1="67.05" y1="57.69" x2="62.31" y2="63.05"/>
    <line class="cls-7" x1="42.46" y1="110.73" x2="48.3" y2="104.14"/>
    <line class="cls-7" x1="98.41" y1="89.93" x2="111.41" y2="89.93"/>
    <line class="cls-7" x1="88.81" y1="54.35" x2="101.82" y2="54.35"/>
    <line class="cls-7" x1="65.39" y1="66.55" x2="75.4" y2="66.55"/>
  </g>
</svg>
