<svg xmlns="http://www.w3.org/2000/svg" width="533.498" height="533.379" viewBox="0 0 533.498 533.379">
  <path id="Icon_awesome-instagram" data-name="Icon awesome-instagram" d="M266.8,132.176A136.752,136.752,0,1,0,403.555,268.927,136.535,136.535,0,0,0,266.8,132.176Zm0,225.658a88.906,88.906,0,1,1,88.907-88.906A89.068,89.068,0,0,1,266.8,357.834ZM441.046,126.582a31.9,31.9,0,1,1-31.9-31.9A31.823,31.823,0,0,1,441.046,126.582Zm90.573,32.373C529.6,116.227,519.836,78.379,488.534,47.2,457.351,16.014,419.5,6.255,376.776,4.112c-44.037-2.5-176.028-2.5-220.064,0C114.1,6.136,76.256,15.9,44.954,47.078S4.012,116.108,1.869,158.836c-2.5,44.037-2.5,176.028,0,220.064,2.023,42.728,11.783,80.575,43.085,111.758s69.03,40.942,111.758,43.084c44.037,2.5,176.028,2.5,220.064,0,42.728-2.023,80.575-11.783,111.758-43.085,31.183-31.183,40.942-69.03,43.085-111.758,2.5-44.037,2.5-175.909,0-219.945Zm-56.891,267.2a90.01,90.01,0,0,1-50.7,50.7C388.916,490.777,305.6,487.564,266.8,487.564s-122.232,3.094-157.223-10.712a90.01,90.01,0,0,1-50.7-50.7C44.954,391.04,48.167,307.727,48.167,268.927S45.073,146.7,58.879,111.7a90.01,90.01,0,0,1,50.7-50.7C144.691,47.078,228,50.291,266.8,50.291S389.035,47.2,424.026,61a90.01,90.01,0,0,1,50.7,50.7c13.925,35.11,10.712,118.423,10.712,157.223S488.653,391.159,474.728,426.15Z" transform="translate(0.005 -2.238)" fill="#fff"/>
</svg>
