<svg xmlns="http://www.w3.org/2000/svg" width="59.52mm" height="59.52mm" viewBox="0 0 168.72 168.72">
  <defs>
    <style>
      .cls-1 {
        fill: #fff;
        stroke: #e94e1b;
        stroke-linejoin: round;
        stroke-width: 1.16px;
      }

      .cls-1, .cls-3 {
        stroke-linecap: round;
      }

      .cls-2, .cls-3 {
        fill: none;
        stroke: #e94f1c;
        stroke-miterlimit: 10;
      }

      .cls-2 {
        stroke-width: 1.2px;
      }

      .cls-3 {
        stroke-width: 0.55px;
      }
    </style>
  </defs>
  <g id="one_dollar" data-name="one dollar">
    <circle class="cls-1" cx="84.36" cy="84.36" r="83.78"/>
    <g>
      <path class="cls-2" d="M84.16,132.73v-7.17a.51.51,0,0,0-.49-.5q-9.66-.53-14.44-6.5t-5.38-17a.54.54,0,0,1,.42-.54L75.7,98.83a.52.52,0,0,1,.61.49,39.33,39.33,0,0,0,1,7.47,11.32,11.32,0,0,0,2.77,5.4,6.79,6.79,0,0,0,5,1.9q3.5,0,5-2.09a8.91,8.91,0,0,0,1.51-5.31,14.13,14.13,0,0,0-2.39-8.46,39.68,39.68,0,0,0-6.17-6.61l-10-8.76a36.57,36.57,0,0,1-4.77-5.1,21.77,21.77,0,0,1-3.21-6,23.82,23.82,0,0,1-1.16-7.83Q63.93,55.05,69,50q4.92-4.86,13.14-5.46a.51.51,0,0,0,.48-.51V37.18a.52.52,0,0,1,.52-.52h3.15a.51.51,0,0,1,.51.52V44a.52.52,0,0,0,.49.51A17.66,17.66,0,0,1,95,46.63a15,15,0,0,1,5.11,4.86,22.28,22.28,0,0,1,2.82,6.67,39.42,39.42,0,0,1,1.1,7.21.54.54,0,0,1-.44.55l-11.23,2a.52.52,0,0,1-.6-.48A48.41,48.41,0,0,0,91,61.32a9.22,9.22,0,0,0-2.19-4.67,5.65,5.65,0,0,0-4.72-1.51,6.42,6.42,0,0,0-5,2.14,7.81,7.81,0,0,0-1.7,5.16A11.29,11.29,0,0,0,79.2,69.2a33.57,33.57,0,0,0,4.57,5.1L93.69,83a55.18,55.18,0,0,1,5.79,6.13,28,28,0,0,1,4.28,7.39,25.4,25.4,0,0,1,1.6,9.34,20.52,20.52,0,0,1-2.09,9.38,17.16,17.16,0,0,1-5.88,6.67,19.94,19.94,0,0,1-8.6,3.06.51.51,0,0,0-.45.5v7.3a.52.52,0,0,1-.52.52H84.67A.51.51,0,0,1,84.16,132.73Z"/>
      <path class="cls-3" d="M87.6,49.74s6.69,1,9,6.67"/>
      <path class="cls-3" d="M86.12,47.23a14.4,14.4,0,0,1,13.07,9.18"/>
      <path class="cls-3" d="M102,99.7s2.14,9-1.69,15.62A15.06,15.06,0,0,1,88,122.24"/>
      <path class="cls-3" d="M99.69,100.68s2,8.28-1.92,13.82a11.63,11.63,0,0,1-9,5"/>
      <path class="cls-3" d="M97.55,102.26s1.25,6.76-1,10c-1.46,2.13-3.55,4.13-6.42,4.31"/>
    </g>
  </g>
</svg>
