<svg xmlns="http://www.w3.org/2000/svg" width="60.17mm" height="60.17mm" viewBox="0 0 170.56 170.56">
  <defs>
    <style>
      .cls-1 {
        fill: #fff;
        stroke: #e94e1b;
        stroke-linejoin: round;
      }

      .cls-1, .cls-3 {
        stroke-linecap: round;
      }

      .cls-1, .cls-2 {
        stroke-width: 3px;
      }

      .cls-2, .cls-3 {
        fill: none;
        stroke: #e94f1c;
        stroke-miterlimit: 10;
      }

      .cls-3 {
        stroke-width: 0.55px;
      }
    </style>
  </defs>
  <g id="one_dollar" data-name="one dollar">
    <circle class="cls-1" cx="85.28" cy="85.28" r="83.78"/>
    <g>
      <path class="cls-2" d="M85.08,133.65v-7.16a.51.51,0,0,0-.49-.51q-9.65-.53-14.44-6.5t-5.38-17a.52.52,0,0,1,.42-.53l11.43-2.24a.52.52,0,0,1,.61.49,40.16,40.16,0,0,0,1,7.47,11.32,11.32,0,0,0,2.77,5.4,6.77,6.77,0,0,0,5,1.9q3.51,0,5-2.09a8.81,8.81,0,0,0,1.51-5.3,14.21,14.21,0,0,0-2.38-8.47A39.77,39.77,0,0,0,84,92.54L74,83.78a37.18,37.18,0,0,1-4.77-5.1,21.63,21.63,0,0,1-3.21-6,24.08,24.08,0,0,1-1.16-7.83Q64.85,56,69.91,51,74.82,46.09,83,45.49a.51.51,0,0,0,.48-.51V38.1a.52.52,0,0,1,.52-.52h3.15a.52.52,0,0,1,.52.52v6.78a.52.52,0,0,0,.48.52,17.61,17.61,0,0,1,7.69,2.15,15,15,0,0,1,5.1,4.87,21.86,21.86,0,0,1,2.82,6.66,39.53,39.53,0,0,1,1.1,7.22.52.52,0,0,1-.43.54l-11.24,2a.51.51,0,0,1-.6-.48,46.62,46.62,0,0,0-.74-6.08,9.26,9.26,0,0,0-2.19-4.67A5.67,5.67,0,0,0,85,56.06a6.45,6.45,0,0,0-5,2.14,7.81,7.81,0,0,0-1.7,5.16,11.36,11.36,0,0,0,1.85,6.76,34.1,34.1,0,0,0,4.57,5.11l9.92,8.65A54.21,54.21,0,0,1,100.4,90a28.1,28.1,0,0,1,4.28,7.39,25.44,25.44,0,0,1,1.6,9.34,20.46,20.46,0,0,1-2.09,9.39,17.2,17.2,0,0,1-5.88,6.66,19.94,19.94,0,0,1-8.6,3.06.52.52,0,0,0-.45.5v7.3a.51.51,0,0,1-.51.52H85.6A.52.52,0,0,1,85.08,133.65Z"/>
      <path class="cls-3" d="M88.53,50.66s6.68,1,9,6.67"/>
      <path class="cls-3" d="M87.05,48.15a14.43,14.43,0,0,1,13.07,9.18"/>
      <path class="cls-3" d="M102.88,100.62s2.14,9-1.69,15.62a15,15,0,0,1-12.32,6.92"/>
      <path class="cls-3" d="M100.61,101.6s2,8.28-1.92,13.82a11.61,11.61,0,0,1-9,5"/>
      <path class="cls-3" d="M98.48,103.18s1.24,6.77-1,10c-1.46,2.13-3.54,4.13-6.42,4.31"/>
    </g>
  </g>
</svg>
