<svg xmlns="http://www.w3.org/2000/svg" width="533.288" height="533.379" viewBox="0 0 533.288 533.379">
  <path id="Icon_awesome-search" data-name="Icon awesome-search" d="M526.036,461.141,422.183,357.288A24.981,24.981,0,0,0,404.475,350H387.5a215.6,215.6,0,0,0,45.833-133.332C433.328,96.978,336.35,0,216.664,0S0,96.978,0,216.664,96.978,433.328,216.664,433.328A215.6,215.6,0,0,0,350,387.5v16.979a24.981,24.981,0,0,0,7.292,17.708L461.141,526.036a24.9,24.9,0,0,0,35.312,0l29.479-29.479a25.117,25.117,0,0,0,.1-35.416ZM216.664,350A133.332,133.332,0,1,1,350,216.664,133.255,133.255,0,0,1,216.664,350Z" fill="#fff"/>
</svg>
