<svg xmlns="http://www.w3.org/2000/svg" width="60.17mm" height="60.17mm" viewBox="0 0 170.56 170.56">
  <defs>
    <style>
      .cls-1 {
        fill: #fff;
        stroke-linejoin: round;
      }

      .cls-1, .cls-2, .cls-3 {
        stroke: #e94f1c;
      }

      .cls-1, .cls-3 {
        stroke-linecap: round;
      }

      .cls-1, .cls-2 {
        stroke-width: 3px;
      }

      .cls-2, .cls-3 {
        fill: none;
        stroke-miterlimit: 10;
      }

      .cls-3 {
        stroke-width: 0.55px;
      }
    </style>
  </defs>
  <g id="tre_dollar" data-name="tre dollar">
    <circle class="cls-1" cx="85.28" cy="85.28" r="83.78"/>
    <g>
      <path class="cls-2" d="M85.08,133.65v-7.16a.51.51,0,0,0-.49-.51q-9.65-.53-14.44-6.5t-5.38-17a.52.52,0,0,1,.42-.53l11.43-2.24a.52.52,0,0,1,.61.49,40.16,40.16,0,0,0,1,7.47,11.32,11.32,0,0,0,2.77,5.4,6.77,6.77,0,0,0,5,1.9q3.51,0,5-2.09a8.81,8.81,0,0,0,1.51-5.3,14.21,14.21,0,0,0-2.38-8.47A39.77,39.77,0,0,0,84,92.54L74,83.78a37.18,37.18,0,0,1-4.77-5.1,21.63,21.63,0,0,1-3.21-6,24.08,24.08,0,0,1-1.16-7.83Q64.85,56,69.91,51,74.82,46.09,83,45.49a.51.51,0,0,0,.48-.51V38.1a.52.52,0,0,1,.52-.52h3.15a.52.52,0,0,1,.52.52v6.78a.52.52,0,0,0,.48.52,17.61,17.61,0,0,1,7.69,2.15,15,15,0,0,1,5.1,4.87,21.86,21.86,0,0,1,2.82,6.66,39.53,39.53,0,0,1,1.1,7.22.52.52,0,0,1-.43.54l-11.24,2a.51.51,0,0,1-.6-.48,46.62,46.62,0,0,0-.74-6.08,9.26,9.26,0,0,0-2.19-4.67A5.67,5.67,0,0,0,85,56.06a6.45,6.45,0,0,0-5,2.14,7.81,7.81,0,0,0-1.7,5.16,11.36,11.36,0,0,0,1.85,6.76,34.1,34.1,0,0,0,4.57,5.11l9.92,8.65A54.21,54.21,0,0,1,100.4,90a28.1,28.1,0,0,1,4.28,7.39,25.44,25.44,0,0,1,1.6,9.34,20.46,20.46,0,0,1-2.09,9.39,17.2,17.2,0,0,1-5.88,6.66,19.94,19.94,0,0,1-8.6,3.06.52.52,0,0,0-.45.5v7.3a.51.51,0,0,1-.51.52H85.6A.52.52,0,0,1,85.08,133.65Z"/>
      <path class="cls-3" d="M88.53,50.66s6.68,1,9,6.67"/>
      <path class="cls-3" d="M87.05,48.15a14.43,14.43,0,0,1,13.07,9.18"/>
      <path class="cls-3" d="M102.88,100.62s2.14,9-1.69,15.62a15,15,0,0,1-12.32,6.92"/>
      <path class="cls-3" d="M100.61,101.6s2,8.28-1.92,13.82a11.61,11.61,0,0,1-9,5"/>
      <path class="cls-3" d="M98.48,103.18s1.24,6.77-1,10c-1.46,2.13-3.54,4.13-6.42,4.31"/>
    </g>
    <g>
      <path class="cls-2" d="M37.42,133.06v-7.17a.52.52,0,0,0-.49-.51q-9.66-.51-14.44-6.49t-5.38-17a.52.52,0,0,1,.42-.54L29,99.16a.52.52,0,0,1,.61.48,38.54,38.54,0,0,0,1,7.48,11.33,11.33,0,0,0,2.77,5.4,6.77,6.77,0,0,0,5,1.89c2.33,0,4-.69,5-2.09a8.86,8.86,0,0,0,1.51-5.3,14.11,14.11,0,0,0-2.39-8.46A39.68,39.68,0,0,0,36.35,92l-10-8.76a36.08,36.08,0,0,1-4.77-5.11,21.49,21.49,0,0,1-3.21-6,23.72,23.72,0,0,1-1.17-7.83q0-8.85,5.06-13.86,4.92-4.86,13.14-5.46a.51.51,0,0,0,.48-.51V37.5a.51.51,0,0,1,.52-.51h3.15a.51.51,0,0,1,.51.51v6.79a.52.52,0,0,0,.49.51A17.66,17.66,0,0,1,48.21,47a14.9,14.9,0,0,1,5.11,4.86,22.59,22.59,0,0,1,2.82,6.66,39.66,39.66,0,0,1,1.09,7.22.52.52,0,0,1-.43.55l-11.23,2a.52.52,0,0,1-.6-.48,46.32,46.32,0,0,0-.75-6.08A9.13,9.13,0,0,0,42,57a5.65,5.65,0,0,0-4.72-1.51,6.39,6.39,0,0,0-5,2.14,7.74,7.74,0,0,0-1.7,5.15,11.27,11.27,0,0,0,1.85,6.76A33.62,33.62,0,0,0,37,74.63L47,83.29a55.18,55.18,0,0,1,5.79,6.13A27.79,27.79,0,0,1,57,96.81a25.36,25.36,0,0,1,1.6,9.34,20.52,20.52,0,0,1-2.09,9.38,17.26,17.26,0,0,1-5.89,6.67,19.76,19.76,0,0,1-8.59,3,.52.52,0,0,0-.45.51v7.3a.52.52,0,0,1-.52.52H37.93A.51.51,0,0,1,37.42,133.06Z"/>
      <path class="cls-3" d="M40.86,50.07s6.69,1,9,6.67"/>
      <path class="cls-3" d="M39.38,47.55a14.43,14.43,0,0,1,13.07,9.19"/>
      <path class="cls-3" d="M55.22,100s2.14,9-1.69,15.62a15.06,15.06,0,0,1-12.32,6.92"/>
      <path class="cls-3" d="M53,101s2,8.28-1.92,13.82a11.64,11.64,0,0,1-9,5"/>
      <path class="cls-3" d="M50.81,102.59s1.25,6.76-1,10c-1.46,2.14-3.55,4.13-6.43,4.32"/>
    </g>
    <g>
      <path class="cls-2" d="M132.94,133.06v-7.17a.52.52,0,0,0-.49-.51q-9.66-.51-14.44-6.49t-5.38-17a.53.53,0,0,1,.42-.54l11.43-2.23a.52.52,0,0,1,.61.48,39.33,39.33,0,0,0,1,7.48,11.41,11.41,0,0,0,2.77,5.4,6.79,6.79,0,0,0,5,1.89c2.34,0,4-.69,5-2.09a8.86,8.86,0,0,0,1.51-5.3A14.11,14.11,0,0,0,138,98.56,39.68,39.68,0,0,0,131.87,92l-10-8.76a36.08,36.08,0,0,1-4.77-5.11,21.49,21.49,0,0,1-3.21-6,23.73,23.73,0,0,1-1.16-7.83q0-8.85,5.05-13.86,4.92-4.86,13.14-5.46a.51.51,0,0,0,.48-.51V37.5a.51.51,0,0,1,.52-.51h3.15a.51.51,0,0,1,.51.51v6.79a.52.52,0,0,0,.49.51A17.74,17.74,0,0,1,143.74,47a14.87,14.87,0,0,1,5.1,4.86,22.08,22.08,0,0,1,2.82,6.66,39.66,39.66,0,0,1,1.1,7.22.54.54,0,0,1-.44.55l-11.23,2a.52.52,0,0,1-.6-.48,46.41,46.41,0,0,0-.74-6.08A9.22,9.22,0,0,0,137.56,57a5.64,5.64,0,0,0-4.72-1.51,6.42,6.42,0,0,0-5,2.14,7.8,7.8,0,0,0-1.7,5.15A11.27,11.27,0,0,0,128,69.52a33.62,33.62,0,0,0,4.57,5.11l9.92,8.66a54.26,54.26,0,0,1,5.79,6.13,27.79,27.79,0,0,1,4.28,7.39,25.36,25.36,0,0,1,1.6,9.34,20.39,20.39,0,0,1-2.09,9.38,17.16,17.16,0,0,1-5.88,6.67,19.8,19.8,0,0,1-8.6,3,.53.53,0,0,0-.45.51v7.3a.51.51,0,0,1-.51.52h-3.16A.51.51,0,0,1,132.94,133.06Z"/>
      <path class="cls-3" d="M136.38,50.07s6.69,1,9,6.67"/>
      <path class="cls-3" d="M134.9,47.55A14.43,14.43,0,0,1,148,56.74"/>
      <path class="cls-3" d="M150.74,100s2.14,9-1.69,15.62a15.06,15.06,0,0,1-12.32,6.92"/>
      <path class="cls-3" d="M148.47,101s2,8.28-1.92,13.82a11.63,11.63,0,0,1-9,5"/>
      <path class="cls-3" d="M146.33,102.59s1.25,6.76-1,10c-1.46,2.14-3.55,4.13-6.42,4.32"/>
    </g>
  </g>
</svg>
