<svg xmlns="http://www.w3.org/2000/svg" width="59.52mm" height="59.52mm" viewBox="0 0 168.72 168.72">
  <defs>
    <style>
      .cls-1 {
        fill: #fff;
        stroke-linejoin: round;
        stroke-width: 1.16px;
      }

      .cls-1, .cls-2, .cls-3 {
        stroke: #e94f1c;
      }

      .cls-1, .cls-3 {
        stroke-linecap: round;
      }

      .cls-2, .cls-3 {
        fill: none;
        stroke-miterlimit: 10;
      }

      .cls-2 {
        stroke-width: 1.2px;
      }

      .cls-3 {
        stroke-width: 0.55px;
      }
    </style>
  </defs>
  <g id="two_dollar" data-name="two dollar">
    <circle class="cls-1" cx="84.36" cy="84.36" r="83.78"/>
    <g>
      <path class="cls-2" d="M107.12,134v-7.17a.52.52,0,0,0-.49-.51q-9.64-.51-14.44-6.49t-5.38-17a.53.53,0,0,1,.42-.54l11.43-2.23a.52.52,0,0,1,.61.48,40.15,40.15,0,0,0,1,7.48,11.41,11.41,0,0,0,2.77,5.4,6.81,6.81,0,0,0,5,1.9q3.51,0,5-2.1a8.79,8.79,0,0,0,1.51-5.3,14.2,14.2,0,0,0-2.38-8.46,39.77,39.77,0,0,0-6.18-6.61L96,84.16a36.59,36.59,0,0,1-4.76-5.11,21,21,0,0,1-3.21-6,23.72,23.72,0,0,1-1.17-7.83q0-8.85,5.06-13.86,4.9-4.86,13.13-5.46a.51.51,0,0,0,.48-.51V38.47a.51.51,0,0,1,.52-.51h3.15a.51.51,0,0,1,.52.51v6.79a.51.51,0,0,0,.48.51,17.74,17.74,0,0,1,7.69,2.16,14.87,14.87,0,0,1,5.1,4.86,22.08,22.08,0,0,1,2.82,6.66,39.66,39.66,0,0,1,1.1,7.22.53.53,0,0,1-.43.55l-11.24,2a.52.52,0,0,1-.6-.48,46.62,46.62,0,0,0-.74-6.08A9.22,9.22,0,0,0,111.74,58,5.64,5.64,0,0,0,107,56.44a6.42,6.42,0,0,0-5,2.14,7.8,7.8,0,0,0-1.7,5.15,11.39,11.39,0,0,0,1.85,6.77,34.05,34.05,0,0,0,4.57,5.1l9.92,8.66a53.38,53.38,0,0,1,5.79,6.13,28,28,0,0,1,4.28,7.39,25.4,25.4,0,0,1,1.6,9.34,20.39,20.39,0,0,1-2.09,9.38,17.16,17.16,0,0,1-5.88,6.67,19.94,19.94,0,0,1-8.6,3.06.51.51,0,0,0-.45.5V134a.51.51,0,0,1-.51.52h-3.15A.52.52,0,0,1,107.12,134Z"/>
      <path class="cls-3" d="M110.57,51s6.68,1,9,6.67"/>
      <path class="cls-3" d="M109.09,48.53a14.41,14.41,0,0,1,13.07,9.18"/>
      <path class="cls-3" d="M124.93,101s2.14,9-1.7,15.62a15,15,0,0,1-12.32,6.92"/>
      <path class="cls-3" d="M122.65,102s2,8.28-1.92,13.82a11.64,11.64,0,0,1-8.94,5"/>
      <path class="cls-3" d="M120.52,103.56s1.24,6.76-1,10c-1.46,2.13-3.54,4.12-6.42,4.31"/>
    </g>
    <g>
      <path class="cls-2" d="M57.33,134v-7.17a.52.52,0,0,0-.49-.51q-9.66-.51-14.44-6.49T37,102.9a.53.53,0,0,1,.42-.54l11.43-2.23a.52.52,0,0,1,.61.48,39.33,39.33,0,0,0,1,7.48,11.41,11.41,0,0,0,2.77,5.4,6.79,6.79,0,0,0,5,1.9c2.34,0,4-.7,5-2.1a8.86,8.86,0,0,0,1.51-5.3,14.13,14.13,0,0,0-2.39-8.46,39.68,39.68,0,0,0-6.17-6.61l-10-8.76a36.08,36.08,0,0,1-4.77-5.11,21.49,21.49,0,0,1-3.21-6,23.73,23.73,0,0,1-1.16-7.83q0-8.85,5-13.86,4.92-4.86,13.14-5.46a.51.51,0,0,0,.48-.51V38.47a.51.51,0,0,1,.52-.51h3.15a.51.51,0,0,1,.51.51v6.79a.52.52,0,0,0,.49.51,17.74,17.74,0,0,1,7.69,2.16,14.87,14.87,0,0,1,5.1,4.86,22.08,22.08,0,0,1,2.82,6.66,39.66,39.66,0,0,1,1.1,7.22.54.54,0,0,1-.44.55l-11.23,2a.52.52,0,0,1-.6-.48,46.62,46.62,0,0,0-.74-6.08A9.22,9.22,0,0,0,62,58a5.64,5.64,0,0,0-4.72-1.51,6.42,6.42,0,0,0-5,2.14,7.8,7.8,0,0,0-1.7,5.15,11.32,11.32,0,0,0,1.85,6.77,34.05,34.05,0,0,0,4.57,5.1l9.92,8.66a54.26,54.26,0,0,1,5.79,6.13,28,28,0,0,1,4.28,7.39,25.4,25.4,0,0,1,1.6,9.34,20.39,20.39,0,0,1-2.09,9.38,17.16,17.16,0,0,1-5.88,6.67,19.94,19.94,0,0,1-8.6,3.06.51.51,0,0,0-.45.5V134a.51.51,0,0,1-.51.52H57.84A.51.51,0,0,1,57.33,134Z"/>
      <path class="cls-3" d="M60.77,51s6.69,1,9,6.67"/>
      <path class="cls-3" d="M59.29,48.53a14.4,14.4,0,0,1,13.07,9.18"/>
      <path class="cls-3" d="M75.13,101s2.14,9-1.69,15.62a15.06,15.06,0,0,1-12.32,6.92"/>
      <path class="cls-3" d="M72.86,102s2,8.28-1.92,13.82a11.64,11.64,0,0,1-8.95,5"/>
      <path class="cls-3" d="M70.72,103.56s1.25,6.76-1,10c-1.46,2.13-3.55,4.12-6.42,4.31"/>
    </g>
  </g>
</svg>
