<svg xmlns="http://www.w3.org/2000/svg" width="36.27mm" height="36.27mm" viewBox="0 0 102.82 102.82">
  <defs>
    <style>
      .cls-1, .cls-2, .cls-3, .cls-4 {
        fill: none;
        stroke: #f1f2f1;
        stroke-linecap: round;
        stroke-linejoin: round;
      }

      .cls-1 {
        stroke-width: 0.7px;
      }

      .cls-2 {
        stroke-width: 0.64px;
      }

      .cls-3 {
        stroke-width: 0.32px;
      }

      .cls-4 {
        stroke-width: 0.38px;
      }
    </style>
  </defs>
  <g id="tent">
    <circle class="cls-1" cx="51.41" cy="51.41" r="51.06"/>
    <path class="cls-2" d="M52.19,28.64s-12.13.23-19.53,6.71A62.31,62.31,0,0,0,20,50.13c-2.3,3.42-6.55,9.21-8,12.56l10.25,7.88.89-1.48"/>
    <path class="cls-2" d="M28.48,62.06c0-.28-1.52-1-1.44-1.17s-11.9-3.59-11.9-3.59"/>
    <path class="cls-2" d="M22.27,70.57S28.4,62,28.83,61.48,51.43,36.9,52.19,36.22,60,29.42,60,29.42s-12.79-3.21-18.43,3.42C38,37,34.55,45,33.64,46.93S22.27,70.57,22.27,70.57C23.92,70.5,91,69.68,91,69.68a.87.87,0,0,0,0-1.37c-.19-.2-27-33.19-27.34-34.08-.08-.17-.66-1-1.31-2A24.8,24.8,0,0,0,60,29.42"/>
    <path class="cls-2" d="M62.65,32.54A26.43,26.43,0,0,1,73.9,42.41c4,6.82,10.62,17.89,10.62,17.89"/>
    <path class="cls-2" d="M32.11,57.9s48.68-.12,49.65-.6"/>
    <line class="cls-2" x1="57.59" y1="28.98" x2="57.26" y2="31.77"/>
    <path class="cls-2" d="M56.36,34.44a32.73,32.73,0,0,0,3.38,5.28,24.67,24.67,0,0,0,2.13,2.64c1.07,1,3.16,4,6.53,3.85"/>
    <path class="cls-2" d="M60,40a32.35,32.35,0,0,0,2.35,6.74c.85,1.34,2.61,11.16,2.61,11.16"/>
    <line class="cls-2" x1="62.14" y1="46.48" x2="68.53" y2="46.48"/>
    <path class="cls-2" d="M67.16,46.53c0,.53,1.18,7.54,1.92,8.55s4.58,2.22,4.58,2.22c-.53-2.07-6.73-13.84-6.81-14.18s-8.26-8.26-8.68-8.55-4.1,0-4.1,0"/>
    <path class="cls-2" d="M51.6,36.82s5,1.17,6.26,8.47,1.06,9.88,1.06,9.88"/>
    <line class="cls-2" x1="43.62" y1="45.42" x2="57.86" y2="45.29"/>
    <path class="cls-2" d="M39.52,49.86s-.28,4.7.44,6.36l.72,1.65"/>
    <path class="cls-2" d="M40.94,48.32s.2,7,.51,7.47.95,2.08,1,2.08"/>
    <path class="cls-2" d="M70,55.79a8.05,8.05,0,0,0-2.67-.62c-1.16.06-25.87.62-25.87.62"/>
    <path class="cls-3" d="M21.81,70.35c0,.24.2.77.46.71a.58.58,0,0,0,.43-.71"/>
    <path class="cls-3" d="M12,62.69s-.56.22-.56.49.94-.21.91-.23"/>
    <path class="cls-3" d="M11.61,63.4a.7.7,0,0,0,0,.33"/>
    <path class="cls-3" d="M16.07,57.42s7-10.18,7.24-10.28"/>
    <path class="cls-3" d="M17.24,57.82a27.1,27.1,0,0,1,2.08-3.39c1-1.44,3.26-4.45,3.36-4.49"/>
    <path class="cls-3" d="M19.09,58.63s.9-1.47,2.08-3.09"/>
    <path class="cls-3" d="M18.16,58.23s1.83-3,3-4.6"/>
    <path class="cls-3" d="M20.13,58.85s.9-1.46,2.09-3.09"/>
    <path class="cls-3" d="M23.16,59.54c.1,0,.51-1.08,1.35-2.7"/>
    <path class="cls-3" d="M24.26,59.93s.76-1.62,1.65-3.15"/>
    <path class="cls-4" d="M25.46,60.5l1.19-2.27"/>
    <path class="cls-3" d="M21.17,59.14s-.31.39.87-1.24"/>
    <path class="cls-3" d="M32.11,55.48s6.19-6.81,6.63-7.16"/>
    <path class="cls-3" d="M35.42,50.65a17.1,17.1,0,0,1,1.48-1.43"/>
    <path class="cls-3" d="M33.53,34.83s5.32-2.54,5.53-2.54"/>
    <path class="cls-3" d="M32.53,36.71c.37-.14,7.23-4,7.54-4"/>
    <path class="cls-3" d="M30,38.8s6.36-3.14,6.87-3.25"/>
    <path class="cls-3" d="M49,29.53s5.83-.92,6-.86"/>
    <path class="cls-3" d="M49.18,31.25s8.2-1.52,8.41-1.46"/>
    <path class="cls-3" d="M50.73,30.1S56.8,28.92,57,29"/>
    <path class="cls-3" d="M12.54,63.23s1.82-3,3-4.6"/>
    <path class="cls-3" d="M13.64,64s1.82-3,3-4.6"/>
    <path class="cls-3" d="M13.06,63.6s.9-1.46,2.08-3.09"/>
    <path class="cls-3" d="M15.45,65s.9-1.47,2.08-3.1"/>
    <path class="cls-3" d="M14.14,64.33s-.32.39.87-1.23"/>
    <path class="cls-3" d="M14.73,64.61s-.32.4.87-1.23"/>
    <path class="cls-3" d="M16,65.25s-.32.4.87-1.23"/>
    <path class="cls-3" d="M16.26,65.74l.58-.79"/>
    <path class="cls-3" d="M60.21,37.89s5.37,7.45,7.48,6.93"/>
    <path class="cls-3" d="M64,41.12s2.18,2.69,3.22,2.67"/>
    <path class="cls-3" d="M65.56,44.85a8.15,8.15,0,0,0,2.43.57"/>
    <path class="cls-3" d="M68,47.59s1.74,4.17,2.63,4.88"/>
    <path class="cls-3" d="M67.69,49s2.16,4.49,3.22,4.91"/>
    <line class="cls-3" x1="55.27" y1="55.48" x2="55.27" y2="53.63"/>
    <line class="cls-3" x1="57" y1="55.46" x2="57" y2="50.65"/>
    <line class="cls-3" x1="57.86" y1="55.48" x2="57.86" y2="53.05"/>
    <line class="cls-3" x1="56.13" y1="55.46" x2="56.13" y2="51.9"/>
    <line class="cls-3" x1="63.74" y1="52.62" x2="61.13" y2="50.19"/>
    <line class="cls-3" x1="62.65" y1="55.17" x2="60.05" y2="52.74"/>
    <line class="cls-3" x1="64.61" y1="55.77" x2="62.01" y2="53.34"/>
    <line class="cls-3" x1="61.93" y1="55.46" x2="60.71" y2="54.32"/>
  </g>
</svg>
